<?xml version="1.0" encoding="utf-8"?>
<!-- Generator: Adobe Illustrator 26.0.3, SVG Export Plug-In . SVG Version: 6.00 Build 0)  -->
<svg version="1.1" id="Layer_1" xmlns="http://www.w3.org/2000/svg" xmlns:xlink="http://www.w3.org/1999/xlink" x="0px" y="0px"
	 viewBox="0 0 229.7 183.4" style="enable-background:new 0 0 229.7 183.4;" xml:space="preserve">
<style type="text/css">
	.st0{display:none;}
	.st1{display:inline;}
	.st2{fill:#0000FF;}
	.st3{fill:#FFFFFF;}
	.st4{fill:#FE0002;}
	.st5{fill:#FCFCFC;stroke:#FFFFFF;stroke-miterlimit:10;}
</style>
<g id="Layer_2_00000124152700541874724870000017431668950161091714_" class="st0">
	<g class="st1">
		<rect x="-34" y="-32.6" class="st2" width="286" height="243"/>
	</g>
</g>
<g>
	<g>
		<polygon class="st3" points="210.8,97.8 205,94.8 199.4,98 200.3,91.5 195.6,87 201.9,85.9 204.7,79.9 207.6,85.7 214,86.6 
			209.5,91.3 		"/>
	</g>
</g>
<g>
	<g>
		<polygon class="st3" points="188,74.1 184.2,72.2 180.6,74.3 181.2,70 178.1,67.1 182.2,66.4 184,62.4 186,66.3 190.1,66.8 
			187.2,69.9 		"/>
	</g>
</g>
<g>
	<g>
		<polygon class="st3" points="188.1,94.4 185.6,93.1 183.1,94.5 183.5,91.7 181.5,89.7 184.3,89.2 185.4,86.6 186.7,89.2 
			189.5,89.5 187.6,91.6 		"/>
	</g>
</g>
<g>
	<g>
		<path class="st4" d="M29.5,65.3c9.9,0,19.8,0.3,29.6-0.1c11.6-0.5,18.3-8.5,17.6-20.4c-0.5-8.1-5.1-14.3-13.1-15.7
			c-7-1.2-14.3-1.1-21.5-1.4c-4.1-0.2-8.3,0-12.8,0c0-8.6,0-16.3,0-25.9c15.2,1.1,30.1,0.8,44.5,3.6c17.4,3.3,27.7,16.3,29.4,32.9
			c2.1,20.8-4.7,35.7-20.6,44.6c-1.5,0.8-3,1.7-4.8,2.8c2.1,3.8,4.1,7.2,6.1,10.8C64.4,100.8,29.1,80.8,29.5,65.3z"/>
		<path class="st3" d="M78,97.4c-12.6,0-28.4-7-38.2-15.1c-7-5.8-10.8-11.8-10.7-17l0-0.4h0.4c3,0,6.1,0,9.1,0.1
			c6.7,0.1,13.7,0.1,20.5-0.1c5.4-0.2,9.8-2.1,12.8-5.4c3.2-3.5,4.7-8.6,4.4-14.6c-0.5-8.3-5.3-14-12.8-15.3
			c-5.3-0.9-10.8-1.1-16.1-1.2c-1.8-0.1-3.5-0.1-5.3-0.2c-2.8-0.1-5.6-0.1-8.6-0.1c-1.4,0-2.8,0-4.2,0h-0.4V1.4l0.4,0
			c4.7,0.3,9.4,0.6,14,0.8c10.6,0.5,20.6,0.9,30.6,2.8c16.8,3.2,27.9,15.6,29.7,33.2c2.1,20.9-4.9,36-20.8,45
			c-1.1,0.6-2.2,1.3-3.5,2l-1,0.6c1.3,2.3,2.6,4.6,3.8,6.8l2.3,4.1l-0.5,0.1C82.1,97.2,80.1,97.4,78,97.4z M29.9,65.7
			c0.1,4.9,3.7,10.6,10.4,16.1c11.1,9.2,30.2,17,43,14.4L81.5,93c-1.3-2.3-2.6-4.6-4-7.1l-0.2-0.3l1.6-0.9c1.3-0.7,2.4-1.4,3.5-2
			c15.7-8.8,22.5-23.7,20.4-44.2C101.1,21.1,90.2,8.9,73.8,5.8C63.8,3.9,53.8,3.4,43.3,3c-4.4-0.2-9-0.4-13.6-0.7v25.1
			c1.3,0,2.6,0,3.8,0c3,0,5.8-0.1,8.6,0.1c1.8,0.1,3.5,0.1,5.3,0.2c5.4,0.2,10.9,0.3,16.3,1.2c7.9,1.4,12.9,7.3,13.4,16
			c0.4,6.2-1.2,11.4-4.6,15.1c-3.2,3.5-7.8,5.5-13.4,5.7c-6.8,0.3-13.8,0.2-20.6,0.1C35.7,65.7,32.8,65.7,29.9,65.7z"/>
	</g>
	<g>
		<path class="st4" d="M78,97.6c-12.6,0-28.5-7-38.3-15.1C32.7,76.6,28.8,70.5,29,65.3l0-0.5h0.5c3,0,6.1,0,9.1,0.1
			c6.7,0.1,13.7,0.1,20.5-0.1c5.3-0.2,9.8-2.1,12.8-5.4c3.2-3.5,4.7-8.5,4.3-14.5c-0.5-8.2-5.2-13.9-12.7-15.2
			c-5.3-0.9-10.8-1.1-16.2-1.2c-1.7,0-3.5-0.1-5.2-0.2c-2.8-0.1-5.6-0.1-8.6-0.1c-1.4,0-2.8,0-4.2,0h-0.5V1.3l0.5,0
			c4.7,0.3,9.4,0.5,14,0.8C53.9,2.6,63.9,3,73.9,4.9c16.8,3.2,28,15.7,29.8,33.3c2.1,20.9-4.9,36.1-20.9,45.1c-1,0.6-2,1.2-3.1,1.8
			l-1.3,0.7l6.2,10.9L83.9,97C82.1,97.4,80.1,97.6,78,97.6z M30,65.8c0.1,4.8,3.8,10.4,10.4,15.9c11.1,9.1,29.9,16.9,42.7,14.4
			l-6-10.6l2.1-1.2c1.1-0.6,2.1-1.2,3.1-1.8c15.6-8.8,22.5-23.6,20.4-44.1C100.9,21.2,90.1,9,73.7,5.9C63.8,4,53.8,3.6,43.2,3.1
			c-4.4-0.2-8.9-0.4-13.5-0.7v24.8c1.3,0,2.5,0,3.7,0c3,0,5.8-0.1,8.7,0.1c1.7,0.1,3.5,0.1,5.2,0.2c5.4,0.2,11,0.3,16.3,1.2
			c7.9,1.4,13,7.4,13.5,16.1C77.5,51,76,56.3,72.6,60c-3.2,3.5-7.8,5.5-13.4,5.7c-6.9,0.3-13.8,0.2-20.6,0.1
			C35.7,65.8,32.8,65.8,30,65.8z"/>
		<path class="st3" d="M78,97.9c-13.8,0-29.6-7.9-38.5-15.2c-7.2-5.9-11-12.1-10.9-17.4l0-0.9h0.9c3,0,6,0,8.9,0.1l0.1,0
			c6.7,0.1,13.7,0.1,20.5-0.1c5.3-0.2,9.6-2,12.5-5.3c3.1-3.4,4.6-8.4,4.2-14.2c-0.5-8.1-5.1-13.6-12.4-14.9
			c-5.3-0.9-10.8-1.1-16.1-1.2c-1.7,0-3.5-0.1-5.2-0.2c-2.8-0.1-5.6-0.1-8.5-0.1l-1.4,0c-0.9,0-1.9,0-2.8,0h-0.9V0.9L29.4,1
			c4.4,0.3,8.9,0.5,13.2,0.7l0.8,0C54,2.2,64,2.7,74,4.6c17,3.2,28.3,15.8,30.1,33.7c2.2,21.1-4.9,36.4-21,45.5
			c-0.8,0.4-1.6,0.9-2.4,1.4L79,86l6.2,11.1L84,97.3C82.2,97.7,80.1,97.9,78,97.9z M29.3,65.2l0,0.1C29.2,70.4,33,76.4,40,82.2
			c8.8,7.2,24.5,15,38,15c2.1,0,4.1-0.2,5.9-0.6l0.2,0l-6.1-10.8l2.3-1.3c0.8-0.5,1.6-0.9,2.4-1.4c15.9-8.9,22.8-24,20.7-44.7
			c-1.8-17.5-12.8-29.8-29.5-33C63.9,3.4,53.9,3,43.4,2.5l-0.8,0C38.2,2.2,33.7,2,29.3,1.7l-0.1,0v26.2h0.1c1,0,1.9,0,2.8,0l1.4,0
			c3,0,5.8-0.1,8.6,0.1c1.7,0.1,3.5,0.1,5.2,0.2c5.3,0.1,10.9,0.3,16.2,1.2c7.6,1.3,12.5,7.1,13,15.6c0.4,6-1.2,11.1-4.4,14.7
			c-3.1,3.4-7.6,5.3-13,5.5c-6.9,0.3-13.8,0.2-20.5,0.1l-0.1,0c-3,0-6-0.1-8.9-0.1H29.3z M78,96.9c-12.4,0-28.3-7-37.9-15
			c-6.7-5.5-10.4-11.2-10.5-16.1l0-0.4l9,0c6.7,0.1,13.7,0.1,20.6-0.1c5.5-0.2,10.1-2.2,13.2-5.6c3.3-3.6,4.9-8.8,4.5-14.9
			c-0.5-8.6-5.4-14.5-13.2-15.8c-5.4-0.9-10.9-1.1-16.3-1.2c-1.7,0-3.5-0.1-5.2-0.2c-2.8-0.1-5.6-0.1-8.5-0.1l-1.3,0
			c-0.8,0-1.6,0-2.5,0h-0.4V2l0.4,0c4.3,0.3,8.6,0.5,12.8,0.7l0.7,0c10.6,0.5,20.5,0.9,30.5,2.8c16.6,3.2,27.5,15.4,29.3,32.8
			c2.1,20.6-4.8,35.6-20.5,44.5c-0.8,0.4-1.5,0.9-2.4,1.3l-2.6,1.5l6.1,10.7l-0.5,0.1C81.5,96.8,79.8,96.9,78,96.9z M30.4,66.2
			c0.3,4.6,3.9,10,10.2,15.2C51.3,90.2,69.8,98,82.5,95.8l-5.9-10.5l3.2-1.8c0.8-0.5,1.6-0.9,2.4-1.3c15.5-8.7,22.3-23.4,20.2-43.8
			c-1.8-17-12.5-29-28.7-32.1c-9.9-1.9-19.9-2.3-30.4-2.8l-0.7,0c-4.1-0.2-8.2-0.4-12.4-0.7v24.1c0.7,0,1.4,0,2.1,0l1.3,0
			c2.9,0,5.7-0.1,8.5,0.1c1.7,0.1,3.5,0.1,5.2,0.2c5.4,0.1,10.9,0.3,16.4,1.2c8.1,1.4,13.3,7.6,13.8,16.5c0.4,6.3-1.2,11.7-4.7,15.5
			c-3.3,3.6-8,5.6-13.7,5.8c-6.9,0.3-13.9,0.2-20.6,0.1L30.4,66.2z"/>
	</g>
</g>
<g>
	<g>
		<path class="st3" d="M184.3,20.9c-5.3,6.4-10.6,12.9-14.6,17.8c-11.2-4.3-21.2-10-31.7-11.8c-11.5-2-21.7,4.1-29.1,13.8
			c-3.4-9.1-6.8-17.9-10.3-27.1C118.5-6.6,165.2-3.3,184.3,20.9z"/>
		<path class="st3" d="M108.7,41.5l-0.2-0.6c-3.5-9.1-6.8-17.9-10.3-27.1l-0.1-0.2l0.2-0.2C107.4,4.1,123-0.8,140,0.1
			c18.6,1,35.2,8.7,44.5,20.5l0.2,0.2l-5.6,6.9c-3.4,4.1-6.5,8-9.2,11.2l-0.2,0.2l-0.3-0.1c-3.5-1.4-6.9-2.8-10.2-4.3
			c-7.3-3.2-14.3-6.2-21.5-7.5c-10.4-1.8-20.6,3-28.8,13.7L108.7,41.5z M99,13.7c3.4,8.9,6.6,17.4,9.9,26.2
			c8.3-10.5,18.6-15.3,29.1-13.4c7.3,1.3,14.3,4.3,21.7,7.6c3.2,1.4,6.5,2.8,9.9,4.2c2.6-3.2,5.7-7,9-11l5.3-6.4
			c-9.2-11.5-25.6-19-43.8-20C123.3-0.1,108,4.7,99,13.7z"/>
	</g>
</g>
<g>
	<g>
		<path class="st3" d="M168.2,93.5c5.9,6,11.4,11.5,16.9,17c-17,23.7-50.3,28.6-72.8,18.4c-4.8-2.2-7.8-8.9-12.1-14.1
			c7.2-3.3,13.2-6.1,19.3-8.7c1.5-0.6,3.4-0.7,5-0.5C145.7,109.3,150.2,108.1,168.2,93.5z"/>
		<path class="st3" d="M136.8,134.3c-8.8,0-17.3-1.8-24.7-5c-3.4-1.5-5.8-5.1-8.4-8.9c-1.2-1.8-2.5-3.6-3.8-5.3l-0.3-0.4l0.4-0.2
			c2.1-0.9,4-1.8,5.9-2.7c4.6-2.1,9-4.2,13.4-6c1.5-0.6,3.4-0.8,5.2-0.5c21.1,3.6,25.6,2.3,43.4-12.2l0.3-0.2l0.2,0.2
			c5.9,6,11.4,11.5,16.9,17l0.2,0.2l-0.2,0.3C173.6,127.1,154.7,134.3,136.8,134.3z M100.8,115c1.3,1.6,2.4,3.3,3.6,5
			c2.5,3.7,4.9,7.2,8.1,8.6c22,9.8,54.9,5.7,72.2-18.1c-5.3-5.4-10.7-10.8-16.4-16.6c-17.8,14.5-22.4,15.7-43.8,12.1
			c-1.7-0.3-3.5-0.1-4.8,0.4c-4.4,1.8-8.7,3.9-13.4,6C104.5,113.3,102.7,114.1,100.8,115z"/>
	</g>
</g>
<g>
	<g>
		<path class="st3" d="M189.8,83.4c-20.1-4.2-38.3,2.3-56.3,10.2c-13.5,5.9-26.8,12.4-40.6,17.1c-24.2,8.2-42.2,1.6-57.5-19.7
			c-2.2-3.1-4.2-6.4-5.6-10.6c1.5,1.2,3.1,2.3,4.6,3.7c21.4,19.6,45.4,24.2,71.9,13.6c13.2-5.3,26.1-11.1,39.5-15.9
			C160.5,76.5,175.4,76.2,189.8,83.4z"/>
	</g>
	<g>
		<path class="st3" d="M74.2,114.6c-15.2,0-27.9-7.7-39.1-23.3c-2-2.7-4.2-6.2-5.7-10.7L28.8,79l1.3,1c0.5,0.4,1,0.8,1.5,1.1
			c1.1,0.8,2.1,1.6,3.1,2.6c21.2,19.5,45.2,24,71.4,13.5c4.6-1.9,9.4-3.8,13.9-5.7c8.3-3.5,16.9-7.1,25.6-10.2
			c15.8-5.7,30.7-5.1,44.3,1.7l3.4,1.7l-3.8-0.8c-20.4-4.2-38.8,2.7-56,10.1c-3.8,1.7-7.7,3.4-11.4,5.1c-9.5,4.3-19.3,8.7-29.2,12.1
			C86.3,113.4,80.1,114.6,74.2,114.6z M30.9,81.9c1.4,3.6,3.3,6.5,5,8.8c15.3,21.3,33.3,27.5,56.9,19.5c9.9-3.4,19.7-7.8,29.1-12.1
			c3.7-1.7,7.6-3.4,11.4-5.1c16.2-7,33.6-13.6,52.7-10.9c-12.4-5.1-25.8-5.1-40,0c-8.6,3.1-17.2,6.7-25.5,10.2
			c-4.6,1.9-9.3,3.9-13.9,5.7c-26.6,10.6-51,6-72.5-13.7c-1-0.9-2-1.7-3.1-2.5C31,81.9,30.9,81.9,30.9,81.9z"/>
	</g>
</g>
<g>
	<g>
		<path class="st4" d="M69.3,121.1c8.8-1.5,16.5-3.1,24.2-4c1.9-0.2,4.5,1.3,5.8,2.8c2.4,2.9,4.2,6.4,7.1,11
			c-10.5,0-20,0.8-29.3-0.4C74.3,130.1,72,124.5,69.3,121.1z"/>
		<path class="st3" d="M89.7,131.5c-4.3,0-8.4-0.1-12.6-0.7c-2.2-0.3-3.9-3-5.7-5.9c-0.8-1.3-1.6-2.6-2.5-3.6l-0.4-0.5l0.6-0.1
			c2.4-0.4,4.7-0.8,7-1.3c6-1.1,11.6-2.1,17.2-2.8c2-0.2,4.8,1.4,6.2,3c1.7,2,3.1,4.3,4.7,7c0.7,1.2,1.5,2.6,2.5,4l0.4,0.6h-0.7
			c-3,0-5.9,0.1-8.7,0.1C95,131.4,92.4,131.5,89.7,131.5z M70,121.4c0.7,1,1.4,2.1,2.1,3.2c1.6,2.6,3.3,5.3,5.1,5.5
			c6.6,0.8,13.3,0.7,20.5,0.6c2.6-0.1,5.3-0.1,8.1-0.1c-0.8-1.2-1.5-2.4-2.1-3.5c-1.6-2.7-3-5-4.6-6.9c-1.3-1.5-3.8-2.9-5.5-2.7
			c-5.6,0.7-11.2,1.7-17.2,2.8C74.3,120.6,72.2,121,70,121.4z"/>
	</g>
	<g>
		<path class="st4" d="M89.8,131.6c-4.3,0-8.4-0.1-12.6-0.7c-2.2-0.3-3.9-3-5.8-5.9c-0.8-1.2-1.6-2.6-2.4-3.6l-0.5-0.7l0.8-0.1
			c2.4-0.4,4.7-0.8,7-1.3c6-1.1,11.6-2.1,17.2-2.8c2.1-0.3,4.9,1.4,6.3,3c1.7,2,3.1,4.3,4.7,7c0.8,1.2,1.6,2.6,2.5,4.1l0.5,0.8h-0.9
			c-3,0-5.9,0.1-8.7,0.1C95.1,131.6,92.4,131.6,89.8,131.6z M70.2,121.4c0.7,0.9,1.3,2,2,3c1.6,2.6,3.3,5.3,5.1,5.5
			c6.6,0.9,13.3,0.7,20.5,0.6c2.5-0.1,5.2-0.1,7.8-0.1c-0.7-1.2-1.4-2.3-2-3.3c-1.6-2.6-2.9-4.9-4.6-6.9c-1.2-1.4-3.7-2.9-5.4-2.7
			c-5.6,0.7-11.2,1.7-17.2,2.8C74.4,120.7,72.4,121.1,70.2,121.4z"/>
		<path class="st3" d="M89.8,132c-5,0-9-0.2-12.6-0.7c-2.4-0.3-4.2-3.1-6-6.1l-0.2-0.2c-0.7-1.2-1.5-2.4-2.3-3.3l-0.9-1.2l1.5-0.2
			c2.4-0.4,4.7-0.8,7-1.3l0.1,0c5.9-1.1,11.5-2.1,17.1-2.8c2.2-0.3,5.1,1.4,6.6,3.1c1.7,2,3.1,4.3,4.7,7l0.4,0.7
			c0.6,1.1,1.3,2.2,2.1,3.4l0.8,1.3h-1.6c-3.1,0-6.2,0.1-8.7,0.1C95.2,131.9,92.5,132,89.8,132z M69.1,121l0.1,0.2
			c0.8,1,1.6,2.2,2.3,3.4l0.1,0.2c1.8,2.9,3.5,5.5,5.5,5.8c3.6,0.5,7.6,0.7,12.5,0.7c2.7,0,5.4-0.1,8-0.1c2.5-0.1,5.6-0.1,8.7-0.1
			h0.2l-0.1-0.2c-0.8-1.2-1.4-2.3-2.1-3.4l-0.4-0.7c-1.6-2.7-3-5-4.6-6.9c-1.4-1.6-4.1-3.1-5.9-2.9c-5.6,0.7-11.2,1.7-17.1,2.8
			l-0.1,0c-2.3,0.4-4.6,0.8-7,1.3L69.1,121z M89.8,131c-4.3,0-8.4-0.1-12.5-0.7c-1.9-0.3-3.7-3-5.3-5.7l-0.1-0.1
			c-0.6-1-1.3-2-1.9-2.9l-0.4-0.5l0.6-0.1c1.8-0.3,3.5-0.6,5.1-0.9l1.5-0.3c5.8-1.1,11.2-2,16.7-2.7c1.9-0.2,4.4,1.3,5.7,2.8
			c1.6,1.9,3,4.2,4.6,6.8l0.2,0.3c0.6,1,1.2,2,1.9,3.1l0.4,0.6l-0.7,0c-2.3,0-4.6,0.1-6.8,0.1l-1.1,0C95.1,130.9,92.4,131,89.8,131z
			 M70.9,121.7c0.6,0.8,1.1,1.6,1.6,2.5l0.1,0.1c1.6,2.5,3.2,5.1,4.8,5.3c6.6,0.8,13.3,0.7,20.4,0.6l1.1,0c2,0,4-0.1,6.1-0.1
			c-0.6-0.9-1.1-1.8-1.6-2.6l-0.2-0.3c-1.6-2.6-2.9-4.8-4.5-6.7c-1.2-1.3-3.5-2.7-5.1-2.5c-5.4,0.7-10.9,1.6-16.7,2.7l-1.5,0.3
			C74,121.2,72.4,121.4,70.9,121.7z"/>
	</g>
</g>
<g>
	<g>
		<path class="st3" d="M83.9,88c5.6-4.8,10.9-9.4,16.5-14.3c2,5.5,4.1,11.3,6.2,17.2C94.2,98.8,89.8,98.3,83.9,88z"/>
		<path class="st3" d="M93.8,96.7c-0.7,0-1.3-0.1-1.9-0.2c-2.9-0.7-5.4-3.2-8.3-8.3l-0.2-0.3l17.1-14.8l6.5,18l-0.3,0.2
			C100.8,95,96.9,96.7,93.8,96.7z M84.3,88.1c2.7,4.7,5,7,7.7,7.7c3.2,0.8,7.1-0.6,14-5l-5.9-16.4L84.3,88.1z"/>
	</g>
</g>
<g>
	<g>
		<path class="st5" d="M12.5,168.3v9.7H6.6v-25.4h8.1c3.8,0,6.6,0.6,8.4,1.9c1.8,1.3,2.7,3.2,2.7,5.7c0,1.5-0.5,2.8-1.3,4
			c-0.9,1.2-2.2,2.1-3.8,2.7c4.2,5.7,6.9,9.4,8.2,11.1h-6.6l-6.7-9.7L12.5,168.3L12.5,168.3z M12.5,163.9h1.9c1.9,0,3.2-0.3,4.1-0.9
			s1.3-1.5,1.3-2.7c0-1.2-0.5-2.1-1.4-2.6c-0.9-0.5-2.3-0.8-4.2-0.8h-1.8L12.5,163.9L12.5,163.9z"/>
	</g>
	<g>
		<path class="st5" d="M48.4,178H32.4v-25.4h16.1v4.4H38.3v5.6h9.4v4.4h-9.4v6.5h10.2C48.5,173.6,48.5,178,48.4,178z"/>
	</g>
	<g>
		<path class="st5" d="M71.3,178l-2-6H59.2l-2,6h-6.4l9.8-25.5h7.2l9.9,25.5H71.3z M67.9,167.5c-1.9-5.5-2.9-8.6-3.2-9.3
			c-0.2-0.7-0.4-1.3-0.5-1.7c-0.4,1.5-1.6,5.1-3.6,11H67.9z"/>
	</g>
	<g>
		<path class="st5" d="M93.1,156.7c-2.2,0-3.9,0.8-5.2,2.3s-1.8,3.6-1.8,6.4c0,5.7,2.3,8.5,7,8.5c2,0,4.3-0.4,7.1-1.3v4.5
			c-2.3,0.9-4.8,1.3-7.7,1.3c-4.1,0-7.2-1.1-9.3-3.4s-3.2-5.4-3.2-9.6c0-2.6,0.5-4.9,1.6-6.9c1.1-2,2.6-3.5,4.6-4.6s4.3-1.6,6.9-1.6
			c2.7,0,5.4,0.6,8.2,1.8l-1.9,4.4c-1-0.4-2.1-0.8-3.1-1.2C95.1,156.9,94.1,156.7,93.1,156.7z"/>
	</g>
	<g>
		<path class="st5" d="M116.9,178H111v-20.9h-7.6v-4.5h21.1v4.5h-7.6L116.9,178L116.9,178z"/>
	</g>
	<g>
		<path class="st5" d="M140.6,156.7c-2.2,0-3.9,0.8-5.2,2.3s-1.8,3.6-1.8,6.4c0,5.7,2.3,8.5,7,8.5c2,0,4.3-0.4,7.1-1.3v4.5
			c-2.3,0.9-4.8,1.3-7.7,1.3c-4.1,0-7.2-1.1-9.3-3.4s-3.2-5.4-3.2-9.6c0-2.6,0.5-4.9,1.6-6.9c1.1-2,2.6-3.5,4.6-4.6s4.3-1.6,6.9-1.6
			c2.7,0,5.4,0.6,8.2,1.8l-1.9,4.4c-1-0.4-2.1-0.8-3.1-1.2C142.6,156.9,141.6,156.7,140.6,156.7z"/>
	</g>
	<g>
		<path class="st5" d="M178.9,165.3c0,4.2-1.1,7.4-3.4,9.7s-5.6,3.4-9.8,3.4s-7.6-1.1-9.8-3.4c-2.3-2.3-3.4-5.5-3.4-9.7
			s1.1-7.4,3.4-9.7c2.3-2.2,5.6-3.3,9.9-3.3s7.6,1.1,9.8,3.4C177.8,157.8,178.9,161.1,178.9,165.3z M158.6,165.3
			c0,2.8,0.6,5,1.8,6.4c1.2,1.4,2.9,2.1,5.3,2.1c4.7,0,7.1-2.9,7.1-8.6c0-5.7-2.4-8.6-7-8.6c-2.4,0-4.1,0.7-5.3,2.2
			S158.6,162.5,158.6,165.3z"/>
	</g>
	<g>
		<path class="st5" d="M207.9,165.1c0,4.2-1.3,7.4-3.9,9.6s-6.4,3.3-11.3,3.3h-7.9v-25.4h8.8c4.6,0,8.1,1.1,10.6,3.3
			S207.9,161.2,207.9,165.1z M201.7,165.2c0-5.4-2.6-8.2-7.9-8.2h-3.1v16.5h2.5C198.9,173.6,201.7,170.8,201.7,165.2z"/>
	</g>
	<g>
		<path class="st5" d="M229.7,178h-16.1v-25.4h16.1v4.4h-10.1v5.6h9.4v4.4h-9.4v6.5h10.1V178z"/>
	</g>
</g>
</svg>
